<?xml version="1.0" encoding="utf-8"?>
<!-- Generator: Adobe Illustrator 27.4.1, SVG Export Plug-In . SVG Version: 6.00 Build 0)  -->
<svg version="1.1" id="Camada_1" xmlns="http://www.w3.org/2000/svg" xmlns:xlink="http://www.w3.org/1999/xlink" x="0px" y="0px"
	 viewBox="0 0 1500 1500" style="enable-background:new 0 0 1500 1500;" xml:space="preserve">
<image style="overflow:visible;" width="1183" height="1170" xlink:href="../../Library/CloudStorage/GoogleDrive-lucas.pretti@okfn.org/.shortcut-targets-by-id/0B79xBlVd-Nf6ZzMzUlZSTWwxV28/Open Knowledge All Team/Brand 2023/Illustrations/L 1500px - web transp/Compo/data-tools.png"  transform="matrix(1 0 0 1 -2500 2450.5)">
</image>
<image style="overflow:visible;" width="1468" height="1008" xlink:href="../../Library/CloudStorage/GoogleDrive-lucas.pretti@okfn.org/.shortcut-targets-by-id/0B79xBlVd-Nf6ZzMzUlZSTWwxV28/Open Knowledge All Team/Brand 2023/Illustrations/L 1500px - web transp/Compo/global-mov.png"  transform="matrix(1 0 0 1 -205 2677.5)">
</image>
<image style="overflow:visible;" width="1446" height="1128" xlink:href="../../Library/CloudStorage/GoogleDrive-lucas.pretti@okfn.org/.shortcut-targets-by-id/0B79xBlVd-Nf6ZzMzUlZSTWwxV28/Open Knowledge All Team/Brand 2023/Illustrations/L 1500px - web transp/Compo/inclusion.png"  transform="matrix(1 0 0 1 1380 2707.5)">
</image>
<image style="overflow:visible;" width="974" height="1368" xlink:href="../../Library/CloudStorage/GoogleDrive-lucas.pretti@okfn.org/.shortcut-targets-by-id/0B79xBlVd-Nf6ZzMzUlZSTWwxV28/Open Knowledge All Team/Brand 2023/Illustrations/L 1500px - web transp/Compo/open-knowledge.png"  transform="matrix(1 0 0 1 3029 1339.5)">
</image>
<g>
	<path d="M887.8,392c-1.9-0.1-3.9,0.1-5.8-0.3c-1.5-0.3-2.8-1.2-3.9-3.1c1.4-0.1,2.9-0.2,4.7-0.4c-0.5-1.2-1-2.3-1.7-4.1
		c3.6-0.2,6.8-0.3,10.7-0.5c-2-3.2-0.9-4.6,1.9-6.6c7.1-5.1,15.2-8.5,20.9-15.8c2.8-3.5,7.7-5.4,11.7-8c9.7-6.2,19.5-12.1,29-18.6
		c13.2-9.1,26.3-18.2,38.9-28.1c9.2-7.3,18.6-15,20.6-27.7c0.6-3.8,0.2-8-0.8-11.7c-3.3-11.5-7.7-22.7-10.5-34.2
		c-2.6-10.5-10-16.1-18.4-20.9c-7.9-4.6-16.7-5.3-25.8-5.9c-22.5-1.5-42.2,6.2-61.6,16.1c-21.8,11.1-39.3,27.5-57.2,43.7
		c-13.2,11.9-20.8,27.8-30,42.5c-6.1,9.6-11.7,19.6-16.6,29.8c-3.1,6.5-4.4,13.8-6.5,20.7c-2.3,7.7-5.6,15.3-6.6,23.1
		c-1.7,13.1-1.8,26.3-2.7,39.5c-0.3,5-0.9,10-0.3,15.4c2.6-4.6,5.2-9.3,7.8-13.9c4.5-7.9,8.6-16.2,13.7-23.7
		c4.5-6.7,9.8-12.9,15.2-18.9c11-12.4,21.6-25.2,33.6-36.6c17-16.2,36.4-29.5,57.8-39.5c13.5-6.3,27.2-12.3,41.1-17.7
		c4.7-1.8,10.4-1.4,15.6-1.4c1.2,0,3,2.5,3.2,4c0.1,1.1-1.9,3.2-3.3,3.5c-15.5,3.4-28.9,11.7-42.7,18.9
		c-24.7,12.9-47.2,29.2-67.4,48.5c-14.6,14-26.8,29.8-37.2,47.3c-11.6,19.6-18.9,40.9-26.3,62.3c-0.4,1.1-0.5,2.2,0.1,3.9
		c4.5-5.3,8.7-10.7,13.4-15.7c4.8-5.1,10-9.7,15.1-14.5c0.7,1.1,1.3,1.9,2,3c0.5-0.6,0.9-0.9,0.9-1c-2.4-5.1,2.8-5.6,4.8-8.1
		c1.6-2,3-4.2,4.7-6c3.2-3.4,6.4-6.7,9.9-9.8c4.5-4.1,9.9-6.3,16-7c2.1,2.1,4.2,4.2,6.5,6.4c-5,5.5-11.6,1.3-17.6,2.8
		c2.5,1.1,4.6,2,7.8,3.5c-5.9,2.9-10.7,5.3-15.9,7.9c2.8,1.4,5.8,2.1,7.7,3.9c1.7,1.5,3.2,4.8,0.6,6.4c-3.9,2.4-4.7,6.4-7,9.5
		c-3.6,4.9-8.3,8.9-12.9,13.1c-6.2,5.7-12.6,11.1-19,16.6c-0.5-0.5-1-1.1-1.4-1.6c-1.3,2.1-2.5,4.2-3.9,6.2
		c-0.9,1.3-2.2,2.4-3.1,3.7c-2.4,3.4-4.9,6.8-7.1,10.4c-2.9,4.7-5.9,9.3-8.1,14.3c-1.5,3.4-2.7,7.3-2.6,10.9
		c0.4,19.1,1.4,38.2,1.9,57.3c0.6,25.1,1,50.3,1.5,75.5c0.3,13.6,0.5,27.2,0.9,40.8c0.1,3.4,1,6.9,1.6,10.9
		c7.9,0.4,15.8,0.5,23.6,1.2c19.2,1.7,38.3,3.9,56.5,10.7c17.4,6.5,35.2,11.9,52.5,18.8c26,10.3,50.5,23.4,73.2,40
		c17.4,12.7,34.3,25.8,49.1,41.5c13,13.8,25.7,27.9,38.3,42c2.7,3.1,5.3,6.6,6.9,10.3c0.9,2.1,0.7,5.6-0.5,7.6
		c-1.1,1.8-4.2,3.2-6.5,3.3c-6.1,0.4-11.1-2.8-15.7-6.3c-5.1-3.9-10.3-7.7-15.1-12.1c-1.7-1.6-2-4.6-3.1-6.8c-0.9-2-1.8-4.2-3.2-5.6
		c-11.4-11.4-22.4-23.1-34.4-33.9c-9.9-8.8-20.7-16.6-31.3-24.5c-6.9-5.2-13.8-10.2-21.1-14.8c-5.4-3.4-11.3-6.1-17.2-9.2
		c-7.1,10.7-17.9,12.7-28.9,13.8c-9.6,1-19.2,1.5-28.8,2.2c-6.4,0.4-11.4,3-16.1,7.7c-5,5-9,10.4-12.6,16.4
		c-1.6,2.6-3.9,5.2-6.5,6.8c-8.3,5.3-16.5,11-25.5,14.9c-5.5,2.3-12.4,2.2-18.6,1.8c-17-1.1-32.3-8.3-48-14.1
		c-17.9-6.6-35.8-7.3-53.7,0.8c-14.4,6.5-29.8,9.4-45.5,8.2c-15.8-1.2-31-16.9-32.3-33.7c-0.1-1.9,0-4.2,0.8-5.7
		c0.9-1.7,2.8-3.1,4.6-3.8c0.6-0.2,2.4,2,3.3,3.4c5.2,6.9,10.1,14.1,15.7,20.8c4.6,5.5,10.8,5.2,17,3c9.7-3.5,19.2-7.3,28.9-10.8
		c14.6-5.2,29.5-5.4,44.7-3.4c15,2,28.8,7.7,42.6,13.5c5.9,2.5,12.3,4.6,18.7,5.1c12.5,1.1,21.7-6,29.8-14.5
		c4.9-5.2,9.5-10.7,14.6-15.6c10.4-10,23.8-12.5,37.5-14.4c5.6-0.8,11.2-1.5,16.8-2.2c3.9-0.5,6.7-2.3,9.5-5.2
		c2.5-2.5,6.8-3.2,10.3-4.8c-3.7-1.6-7.9-3.8-12.3-5.4c-16.5-5.6-32.8-11.7-49.6-16.3c-21.1-5.8-42.9-7-64.7-7.2
		c-1,0-2.5-0.1-2.8,0.4c-2.8,4.8-7.1,3-11.2,2.8c-1.9,3.4-3.6,6.8-5.8,10c-0.8,1.2-2.7,2.7-3.7,2.5c-1.2-0.2-2.7-2.1-2.9-3.5
		c-0.7-3.7-0.9-7.5-1.4-11.7c-8.1,0.8-16.1,1.2-23.9,2.5c-13.4,2.3-26.9,4.7-40.1,7.9c-9.5,2.2-19,4.9-28,8.7
		c-15.8,6.6-31.9,12.8-46.5,21.5c-18.7,11.2-37.1,23.6-53.8,37.6c-21.5,18.2-41.2,38.6-61.6,58.1c-7.8,7.4-15.1,15.4-23.1,22.5
		c-3.2,2.8-7.6,4.8-11.8,5.7c-7.8,1.6-15.9,2-24.4,3c0.5-1.6,0.5-3,1.2-3.8c12.6-15.9,24.7-32.2,38.1-47.5
		c14.5-16.4,29.6-32.3,45.4-47.4c10.1-9.7,21.9-17.7,32.9-26.4c13.6-10.7,29.1-18.3,44.1-26.7c20.2-11.4,41.6-19.4,63.7-25.4
		c25.8-6.9,52.1-11.9,79-13.2c9.5-0.4,9.6-0.4,8.9-10.1c-1.5-20.1-3.2-40.3-4.7-60.4c-0.7-10.3-1.1-20.7-1.6-31
		c-0.2-4.5-0.1-9-0.1-13.4c0-0.4,0.7-1.2,0.7-1.2c-5.3-4.6-0.4-11-2.9-16.6c-2.8-6.3-2.2-14.2-3.1-21.4c-1.6-12-3.9-23.9-4.9-36
		c-0.8-10-4-19-8.7-27.5c-2.9-5.2-7.1-9.7-11.2-14.1c-15.4-16.2-36.9-22.3-56.1-32c-19.5-9.8-40.1-17.6-60.2-26.2
		c-0.3,0.4-0.6,0.7-0.9,1.1c0.5,0.9,1,1.9,1.6,3c-10.9,4.4-22.1,5.6-33.4,6.3c-29.7,1.6-59.4,3.2-89.1,4.6c-5,0.2-10-0.2-14.9-0.5
		c-8.8-0.5-17.6-1-26.3-1.7c-1.7-0.2-3.3-1.6-5-2.4c1.5-1,2.8-2.5,4.4-2.9c9.7-2.6,19.3-5.7,29.1-7.1c14.5-2,29.1-2.9,43.7-4
		c15.2-1.1,30.5-1.9,45.8-2.6c6.6-0.3,13.3-0.1,19.9-0.1c0.1-0.5,0.1-1,0.2-1.4c-4.6-1.8-9.1-3.7-13.7-5.4
		c-21.6-7.7-41.5-18.5-59.5-32.8c-0.9-0.7-2.4-1-3.6-1.1c-11.7-0.6-23.4-1.9-35-1.5c-22.6,0.7-45.4-0.5-67.7,4.5
		c-13.5,3-25.8,11.7-28.5,27.6c-3,17.1-4.9,34.3-5.2,51.6c-0.2,11.1-1.1,22.2-1.4,33.3c-0.5,18.2-0.7,36.5-1,54.7
		c-0.5,26.9-0.7,53.8-1.8,80.7c-1.1,27.6-3.4,55.1-4.9,82.6c-1,18.4-1.9,36.8-2.1,55.2c-0.3,21.5,0.5,43.1,0.2,64.7
		c-0.3,18.1-1.5,36.3-2.4,54.4c-0.8,14.3-1.2,28.7-3,42.8c-0.9,6.9-4.7,13.4-7.4,20c-0.4,1-3,2.2-3.2,2c-1.2-1.2-2.7-2.8-2.8-4.3
		c-1.1-15.3-2.4-30.7-2.9-46c-0.8-22.2-0.9-44.5-1.4-66.7c-0.3-11.9-1.2-23.8-1.3-35.6c-0.1-15.7,0.1-31.4,0.5-47.1
		c0.2-8.4,1.5-16.8,1.9-25.2c0.5-9.4,0.5-18.9,0.8-28.3c0.3-9,0.8-18,0.9-26.9c0.5-28,1.1-56,1.3-84.1c0.1-23.2-0.8-46.5-0.5-69.7
		c0.4-25.3,1.2-50.7,2.7-76c0.6-10.7,2.9-21.3,5.2-31.7c2.4-11.1,10.5-18.7,18.3-26.2c11.3-10.8,24.7-18.3,39.9-21.5
		c14-3,28.2-5.9,42.9-5.1c11,0.6,22.1,0.3,33.2,0.4c0.9,0,1.9-0.1,2.6-0.2c-3.6-7.2-7.7-14-10.4-21.4c-3.8-10.1-5-20.8-2.6-31.6
		c0.6-2.6,5.1-4.6-0.1-7.9c4.5-1.1,4.5-3.5,4.7-6.9c0.2-4.4,1.5-9.2,3.8-12.9c7.8-12.3,19.5-20.5,31.3-28.6c7.4-5,15.4-7.9,23.9-9.2
		c3.3-0.5,7.5-0.1,10.4,1.5c6.5,3.7,13.4,3.6,20.2,2.9c25.2-2.5,48.3,4.8,71.1,14.2c27.7,11.5,51.7,28.7,74.7,47.4
		c13.6,11,25.3,24.2,33.7,39.8c4.3,7.9,6.7,16.8,9.9,25.3c1.3,3.5,2.5,7.1,3.7,10.7c0.6,0,1.1,0,1.7,0c0.7-4.5,1.5-9,2.2-13.5
		c-0.3,0-0.5,0-0.8,0.1c1-1.5,2.4-2.9,2.9-4.6c7.3-24.7,19.4-47.1,32.4-69.2c8.5-14.5,18.4-28,30.3-40c17-17.2,34.8-33.2,56.2-44.9
		c22.7-12.4,46.5-21.3,72.6-23c27.3-1.8,52,4.8,73.2,22.9c8.4,7.2,10.9,17,13.5,26.9c1.1,4.1,2.1,8.4,3.7,12.3
		c9.1,22.9,11.9,45.6-1.4,68c-6.5,10.9-15.3,19.9-25.9,26.5c-11.1,6.9-23.1,12.4-34.8,18.4c-2,1-4.3,1.4-6.2,3.1c4.8,0,9.7,0,14.5,0
		c13.3-0.1,26.5,0,39.8-0.4c12.6-0.4,25.1-1.8,37.7-1.7c19.2,0,38.3,1,57.5,1.4c11.6,0.3,23.2,0,34.8,0.8c6,0.4,12.3,1.9,17.7,4.4
		c14,6.4,18.3,19.9,21.7,33.2c3.7,14.3,1.3,28.8-0.7,43.3c-0.8,5.5-0.7,11.2-0.7,16.8c0.2,17.9,0.5,35.7,0.9,53.6
		c0.5,25.3,1,50.6,1.7,75.9c0.4,15.7,1.3,31.4,1.7,47.2c0.2,5.3-0.5,10.7-0.3,16.1c0.1,4.5,0.9,9,1,13.6c0.3,8.2,0.2,16.4,0.7,24.5
		c1.1,15.7,2.6,31.4,3.9,47.1c1.1,13.3,2.3,26.7,3,40c0.8,14.5,1.6,29.1,1.8,43.7c0.2,12.2-0.2,24.4-0.8,36.6
		c-0.2,4.2-1.8,8.3-2.8,12.7c0,4.1,1.5,9.4-0.3,13c-2.8,5.5-1.1,10.8-2,16.1c-1.6,9.5-1.5,19.4-3.3,28.9c-0.8,4-4.4,7.7-7.3,11
		c-0.8,0.9-3.6,0.1-6,0.1c0.3,1.1,0.6,2,0.9,3.2c-3.7,2-7.3,4.5-11.3,5.9c-2.1,0.7-5.3,0.1-7.2-1.2c-0.9-0.6,0-4.2,0.4-6.3
		c1.2-5.7,2.6-11.4,3.9-17.1c0.7-3.2,1.4-6.3,2-9.2c-0.3-2.8-0.6-5.7-1-8.6c0.4-0.1,0.8-0.3,1.2-0.4c0.4,0.5,0.8,1.1,1.2,1.7
		c0.1-0.6,0.4-1.1,0.3-1.5c-3.5-8.6-1.7-17.7-2-26.5c-0.2-6-0.5-11.9-0.6-17.9c-0.1-9.4-0.1-18.8-0.2-28.2
		c-0.1-12.9,0.2-25.9-0.2-38.8c-0.3-8.5-1.8-17-2.5-25.5c-1.2-14.7-2.2-29.5-3.4-44.3c-1.4-18.4-3.1-36.7-4.3-55.1
		c-0.6-8.9-0.3-17.8-0.6-26.7c-0.8-22.1-1.9-44.2-2.7-66.4c-0.6-16.1-0.8-32.1-1.2-48.2c-0.6-19.6-1.2-39.1-1.8-58.7
		c-0.7-19.1-1.5-38.1-2.1-57.2c-0.2-5.1,0.4-10.3,0.5-15.5c0-1.6-0.4-3.3-1-4.9c-2.9-8.5-5.6-10.2-15.2-10.4
		c-25.2-0.6-50.4-1.3-75.6-1.7c-10.8-0.2-21.5,0.4-32.3,0.4c-9.1,0-18.2-0.4-27.2-0.7c-8.3-0.2-16.6,0-24.8-0.8
		c-10.3-1.1-20.5-3.1-31.7-4.8c-3.4,1.3-5.5,8.5-12.4,5.7c-0.3-0.1-2.1,1.8-2,2.5c0.8,3.2-1.6,3.9-3.5,5.1c-4,2.5-7.7,5.5-11.8,7.9
		c-3.7,2.1-7.7,3.6-12.5,5.8c-1.3,6.1-10.6,12.1-16.6,9c2,4.1,1.2,5.7-3.4,5.5c-1.7-0.1-3.5,2-5.4,2.9c-1.6,0.8-3.4,1.4-5.1,1.8
		c-3.9,0.9-7.8,1.6-11.7,2.3c0.3-3.8-1.2-4.7-6.8-3.1c3.2-4.7,9.7-6.2,7.6-13.1c0.5,0.2,1.1,0.4,1.6,0.5c0.2,0.7,0.4,1.3,0.7,2.5
		c3.7-1.2,7.3-2.5,11-3.7c-0.1-0.5-0.2-0.9-0.4-1.4c-1.4,0.3-2.8,0.7-4.2,1c-1.1-4.1-7-6-5.8-11.6c1.7,1.3,3.1,2.5,4.1,3.2
		c2.4-1.4,4.4-2.6,6.5-3.8c0.1,0.2,0.2,0.4,0.2,0.6c-1.3,1.6-2.7,3.1-4.2,5c5.5,2.4,7.4-1.3,9.5-4.1c0.3-0.4-1.1-2-1.8-3.1
		c2-0.8,4-1.5,6-2.3c-0.2-0.3-0.3-0.6-0.5-0.9c-2.8-0.6-5.5-1.3-8.3-1.9c-0.4,0.8-0.8,1.5-1.2,2.3C885,390.1,886.4,391,887.8,392z
		 M755.3,472.4c-0.5-7.7,0.1-15.7-1.9-23c-3.5-12.7-8.5-25-12.9-37.5c-5.6-15.9-10.8-32-16.8-47.8c-6.6-17.3-16.6-32.6-30.8-44.7
		c-8-6.8-16.6-12.8-25.1-18.9c-10.8-7.7-21.4-15.7-32.8-22.5c-8.6-5.2-18.2-8.7-27.4-12.8c-8.9-4-17.8-8-26.9-11.5
		c-7.7-3-15.8-4.9-23.5-7.8c-3.2-1.2-5.2-2.3-8.7,0.1c-7.6,5.4-15.2,10.8-24.4,13.6c-10.8,3.3-19.1,9.5-25.4,19.9
		c-7.4,12.2-11.3,24.4-9.3,38.1c1,6.7,2.6,14.3,6.6,19.4c6.5,8.3,14.7,15.6,23,22.2c20.2,16,43.2,27.1,67.5,35.5
		c15.2,5.2,30.8,9.6,45.7,15.5c20.6,8.1,41.3,16.5,61.1,26.3C714.4,447.1,735.6,457.7,755.3,472.4z"/>
	<path d="M545.9,1090.8c1-1.9,1.9-3.9,2.9-5.8c1.4-2.6,2.8-5.1,4.5-7.6c1.2-1.7,2.7-3.3,4.8-5.8c-3.6-0.3-6.1-0.7-8.7-0.8
		c-20.5-0.6-41.1-1.2-61.6-1.7c-16.2-0.4-32.5-0.7-48.4-4.6c-2.2-0.6-4.4-1.4-6.6-2.1c0.1-0.7,0.2-1.4,0.2-2.1
		c7-0.4,13.9-0.8,20.9-1.1c1-0.1,2,0.2,3,0.2c5.1-0.2,9.5-0.5,12.9-6c7.2-11.7,15.4-22.7,23.7-34.6c-4.6-0.4-9.1-1.1-13.6-1.2
		c-16.1-0.2-32.2-0.3-48.3-0.2c-6,0-6.8,2.2-8.1,7.8c-0.9,4.1-4.2,7.6-6.7,11.2c-2.3,3.3-4.9,6.3-7.6,9.7c2.1,1,4.4,1.6,5.8,2.9
		c1.5,1.5,3.7,4.6,3.1,5.7c-1.2,2.2-4.1,5-6.3,5c-19.5,0.1-39-0.5-58.6-0.6c-9.9-0.1-19.9,1.1-29.8,0.6
		c-10.7-0.6-20.6-3.8-25.8-14.5c-2.9-5.9-4.4-12.3,0.3-17.8c3.9-4.6,8.4-8.8,13.1-12.6c7.8-6.3,16-12.1,24.1-18.1
		c6.7-5,13.8-9.1,22.2-10.7c2.9-0.5,5.5-2.2,8.3-3.3c1.4-0.5,2.9-1.6,4.2-1.3c3,0.7,7,1.2,8.4,3.3c2.1,3.3,0.2,7.3-3,9.5
		c-6.7,4.6-13.7,8.9-20.6,13.3c-1.5,1-3,1.9-3.8,2.4c12.4-1.3,25.5-3.6,38.5-3.5c7.1,0.1,9.4-3.8,12.9-7.8c3.4-4,7-7.8,10.3-11.3
		c-13.6-2.7-26.9-5.3-40.3-7.9c-0.2-0.6-0.4-1.2-0.5-1.8c2.7-1.4,5.2-3.3,8.1-4.2c16.8-5.4,34.2-5.9,51.6-5.7
		c10.5,0.1,20.9-0.7,31.4-0.8c18.6-0.2,37.2-0.4,55.8-0.3c11.9,0.1,23.8,0.8,35.7,0.8c9.3,0,18.6-0.6,27.9-0.9
		c11.9-0.4,23.9-0.7,35.8-0.9c19.8-0.4,39.5-0.6,59.3-1.1c20.4-0.5,40.8-1.2,61.2-1.7c22.9-0.5,45.9-1.3,68.8-1.3
		c30.1,0,60.2,0.6,90.3,1c34.4,0.4,68.8,1,103.2,1c24.4,0,48.8-1.4,73.2-1.4c16.8,0,33.7,1.5,50.5,2.5c4,0.2,7,2.4,8.8,6.3
		c0.6,1.4,2.9,2.7,4.5,2.9c5.4,0.9,10.9,1,16.3,2c10.7,1.8,19.5,7,26.6,15.3c9.6,11.2,19.8,22,29,33.5c4.1,5.2,6.7,11.7,9.3,17.9
		c1.4,3.4-0.2,6.4-4.2,8.1c-5.8,2.5-11.7,3.9-18,3.1c-4.1-0.6-7.7-1-10.5,3.5c-2.9,4.7-8.3,5-13.3,5.1c-45.2,0.9-90.4,1.7-135.6,2.5
		c-21.8,0.4-43.5,0.3-65.3,0.9c-16.3,0.4-32.7,1.5-49,2.5c-1.8,0.1-3.8,1.3-5,2.6c-2,2.2,0.5,13.8,1.3,16.7c1,3.5-0.1,7.7-0.3,11.6
		c-0.1,1.8-0.4,3.7-0.3,5.5c0.3,8.6,3,17.2-1.5,25.7c-1.2,2.2-0.6,5.8,0.2,8.5c1.4,4.8,0.1,8.9-4.8,10c-6,1.3-12.1,2.1-18.2,2.1
		c-19.4,0.1-38.8-0.2-58.2-0.6c-21.4-0.4-42.9-1.1-64.3-1.7c-10.2-0.2-20.5-0.3-30.7-0.4c-15.1-0.2-30.2-0.7-45.3-0.4
		c-19.1,0.4-38.1,1.5-57.2,2c-11.4,0.3-22.9,0.3-34.3,0c-15.9-0.3-31.9-0.5-47.8-1.6c-12.4-0.8-23.9-4.8-30.9-16.2
		c-1.2-2-1.6-5.6-0.6-7.7c3-6.4,6.9-12.3,10.3-18.5c0.8-1.4,0.8-3.2,1.7-4.5c1.4-2.2,3.1-4.1,4.7-6.1c1.1-1.4,2.2-2.7,3.3-4.1
		C545.3,1091.1,545.6,1091,545.9,1090.8z M601.7,1072.3c0-0.3,0-0.5,0-0.8c-4.5,0-8.9-0.2-13.4,0.1c-1.4,0.1-3.1,1-4,2.1
		c-4.8,5.9-9.7,11.7-13.8,18.1c-7.4,11.3-14.5,22.9-21.4,34.6c-3.1,5.3-0.7,8.7,5.6,8.6c20.7-0.4,41.4-0.9,62.2-1.4
		c18.6-0.4,37.1-0.9,55.7-1.2c27.2-0.5,54.5-1.2,81.7-1.1c42.7,0.1,85.4,0.8,128.1,1.5c4.5,0.1,6.4-1.7,6.7-5.9
		c0.8-10.3,1.4-20.5,2.4-30.8c0.7-7.1,0.2-14-1-20.9c-1-5.4-2.2-6.7-7.8-6.7c-10.8,0-21.5,0-32.3,0.1c-11.7,0.2-23.3,0.5-35,0.8
		c-16.4,0.3-32.8,0.6-49.2,1c-10.4,0.2-20.8,0.3-31.2,0.8c-13.9,0.6-27.7,2-41.6,2.2c-12,0.2-23.9-0.9-35.9-1
		C638.9,1072.2,620.3,1072.3,601.7,1072.3z M1116.5,1007.2c9.3,0,18.2-0.3,27.1,0.1c7.2,0.3,14.4,1.1,21.4,2.3
		c1.5,0.3,3.2,3.3,3.4,5.1c0.1,1.1-2.4,3-4.1,3.6c-3.2,1.1-6.7,2-10.1,2.3c-7.3,0.7-14.6,0.7-21.9,1.4c-23.2,2.1-45.6-2.1-67.6-8.8
		c-1.1-0.3-1.9-1.3-2.8-2c0.1-0.6,0.2-1.2,0.3-1.8c12.2,0,24.3,0,37,0c-1.2-8.6-2.2-15.8-3.2-23c-0.6-4.4-2.7-6.6-7.6-6.5
		c-15.4,0.2-30.8,0-46.3,0.1c-6.9,0.1-13.8,0.6-19.6,0.9c1,5,2.8,9.7,2.7,14.3c-0.2,4.7-1.4,10-7.2,10.6c1.3,2.5,3.7,5,3.2,6.3
		c-0.9,2.2-3.4,4.2-5.7,5.2c-2.3,1.1-5.2,1.2-7.8,1.2c-7.6,0.1-15.3-0.1-22.9-0.2c-3.7,0-7.4,0-9.9,0c-0.6,10.8-1.1,20.8-1.6,30.7
		c24.9-0.7,50.6-1.5,76.7-2.2c-0.1-9.8-0.5-19.2-4.1-28.2c-1-2.4-2.1-4.7,2.1-6.4c3.6,3.1,7.6,6.2,11.3,9.7
		c5.6,5.1,9.1,11.7,10,19.1c0.6,4.3,1.9,5.6,6.1,5.6c23.7-0.4,47.4-0.3,71.1-1c10.3-0.3,21,1.2,30.4-4.9c1.6-1.1,4.2-0.9,6.3-0.9
		c3.6,0.1,5.4-2.1,5.6-5c0.1-2.2-0.7-5-2.1-6.8c-6.9-9.5-14.6-18.5-21.2-28.2c-8.8-12.9-22.8-15.3-36-19.7c-1-0.3-2.3,0.2-3.4,0.3
		c-4.9,0.2-9.9,0.4-14.8,0.5c-2.5,0.1-5,0-8.3,0C1112.1,988.2,1121.5,994.4,1116.5,1007.2z M630.7,1010c11.2,0,23.4,0.2,35.7,0
		c18.3-0.3,36.5-0.9,54.7-1.4c30.1-0.8,60.1-1.5,90.2-2.4c1.3,0,3.3-0.7,3.7-1.6c3.7-8.2,7.2-16.6,11.3-26.4
		c-39.3,0.9-77.8,1.7-116.3,2.5c1,2.2,2.3,3,3.4,4.2c1.5,1.7,3.4,3.3,4.2,5.4c1.8,4.7,0.3,11.7-6.7,13.1c-5.1,1-10,2.3-15.1,3.5
		c-0.2-0.5-0.5-1.1-0.7-1.6c3.5-7.6,7-15.1,10.5-22.7c-4.2-2.6-125.9-0.5-131.4,2.1c4.8,12-2.2,20.3-9.3,28.8
		c1.1,0.2,1.7,0.4,2.3,0.3c12.8-0.7,25.6-1.4,38.4-2.3c1.3-0.1,3.2-0.8,3.8-1.8c4-6.7,8.1-13.3,11.4-20.4c1.9-4.1,3.2-5,6.4-1.6
		c1.7,1.9,3.9,4.3,4.1,6.6C631.7,999.6,631,1004.8,630.7,1010z M657.8,1022.2c-6.6,0-13-0.1-19.4,0c-17.8,0.4-35.6,0.2-53.3,1.6
		c-19.3,1.5-38.4-0.1-57.6-1.7c-8.8-0.8-17.6-2.1-26.6-3.2c0,16.7-10.8,26.8-19.9,38.3c6,0,11.4-0.2,16.8,0
		c18.9,0.7,37.7,1.5,56.6,2.3c3.9,0.2,6.4-0.9,8.5-4.5c4.9-8.6,10.6-16.9,15.5-25.5c2.1-3.7,4.5-4.7,7.3-3.8
		c-1.8,11.3-3.4,22.1-5.1,33.1c0.1,0.1,0.4,0.4,0.6,0.4c20.9-0.8,41.7-1.7,62.6-2.7c1.2-0.1,2.9-1.2,3.4-2.3
		c3.7-9.1,7.3-18.2,10.7-27.3C658.2,1025.5,657.8,1023.9,657.8,1022.2z M664.7,1022.6c9.2,15,9.2,15-1.6,33.8
		c0.9,0.1,1.6,0.3,2.4,0.4c9.4,0.5,18.9,0.9,28.3,1.5c6.6,0.5,13.2,2,19.8,1.8c13.3-0.5,26.5-1.8,39.8-3c1.3-0.1,3.2-1.6,3.7-2.8
		c3.8-10,7.2-20.1,11-30.1c1.2-3.1,0.2-4.1-2.5-4.3c-3.1-0.1-6.3,0.1-9.4,0.3c-20.4,0.9-40.7,1.8-61.1,2.5
		C685.1,1022.9,675.2,1022.6,664.7,1022.6z M956.8,1018.9c-33.1-0.7-65.3-1.4-96.5-2.1c2.2,6,5.6,12,6.2,18.2
		c0.6,6.2-1.6,12.7-2.3,17.8c17.9,0,36.9,0.2,55.9-0.1c9-0.1,17.9-0.9,26.9-1.5c2.5-0.2,5.5-0.1,6-3.9
		C954.2,1037.8,955.6,1028.3,956.8,1018.9z M774.4,1056.1c1,0.2,1.7,0.4,2.3,0.4c20.1-0.6,40.2-1.2,60.2-2c1.4-0.1,3.2-1.5,3.9-2.9
		c2.3-4.6,4.5-9.3,6.3-14.1c2.5-6.8,4.8-13.7,3.2-21.6c-25.3,0.9-50.4-0.1-75.5,4.2C780.8,1032.4,776.6,1044.2,774.4,1056.1z
		 M905.1,980.2c5.8,7.3,10.2,14.7,8.5,24.3c-0.1,0.7,2.2,2.7,3.4,2.7c11.4-0.3,22.9-0.9,34.3-1.4c0.8,0,2.2-0.1,2.3-0.4
		c1.6-5.7,4.5-2,7-1c1.8,0.6,3.8,1.3,5.7,1.3c5,0.1,10-0.1,15-0.1c8.9,0,17.7,0,26.1,0c0-9,0-16.7,0-25.2
		C973.2,980.2,939.4,980.2,905.1,980.2z M412.5,1018.1c-1.4-0.6-1.8-1-2.2-1c-18.5-1.8-37-1.5-55.6-1.1c-10.4,0.2-18.5,2.9-25.8,9.8
		c-4.7,4.4-10,8.1-14.7,12.6c-1.4,1.3-2.4,4.3-1.9,6c0.4,1.3,3.6,1.7,5.5,2.4c0.6,0.2,1.3,0.1,2,0c22.1-0.4,44.1-0.8,66.2-1.4
		c1.9-0.1,4.3-1.2,5.6-2.6C398.6,1034.8,405.3,1026.6,412.5,1018.1z M570.1,984.4c-7.5,0-13.6,0.1-19.7,0
		c-16.3-0.3-32.6-0.7-48.8-0.7c-2.2,0-5.1,1.8-6.6,3.6c-4.8,6.2-9,12.8-13.3,19.1c8.4,0.6,17.2,0.9,25.9,1.8
		c11.9,1.2,23.8,2.9,35.6,4.5c5.2,0.7,9.4-0.2,11.7-5.6c1-2.2,2.8-4.1,4.1-6.2C562.6,995.6,566.1,990.4,570.1,984.4z M826.6,1005.2
		c22.6,0.5,45.4,1,68.6,1.6c1.4-8.9,2.8-17.6,4.2-27.1c-18.9,0-36.6,0-54.3,0c-1.8,9.2-3.4,18.4-14.5,20.2
		C832.6,1004.8,826.4,1001.6,826.6,1005.2z M415,1007.2c1,0.1,2.4,0.3,3.8,0.3c10.6-0.3,21.2-1.3,31.8-0.9
		c7.9,0.3,13.6-1.6,17.8-8.6c2.6-4.4,6.4-8.2,10.1-12.7c-4.2,0-7.4,0-10.7,0c-12.4,0.2-24.8,0.4-37.1,0.8c-1.6,0-3.8,0.9-4.6,2.1
		C422.3,994.3,418.8,1000.6,415,1007.2z"/>
	<path d="M414.9,916.7c8.7,0,17.5-0.3,26.2,0.1c9.3,0.5,18.5,1.9,27.7,2.6c13.4,1,26.8,1.6,40.2,2.5c36.4,2.5,72.8,0.5,109.2,0
		c22.3-0.3,44.5-0.4,66.8-0.9c15.6-0.3,31.2-1.3,46.8-1.7c13.6-0.4,27.2-0.6,40.8-0.7c15.6-0.2,31.2-0.6,46.8-0.5
		c23.7,0.2,47.5,1.5,71.2,1.1c30.7-0.5,61.5-2.4,92.2-3.2c23.6-0.6,47.2-0.3,70.8-0.4c15.3-0.1,30.5,0,45.8-0.3
		c8.4-0.2,12.3-5,12.4-13.1c0.2-14.1,0.7-28.2,1.2-42.3c0.2-6.1-0.9-13,1.5-18.1c2.7-5.7,2.9-11.1,2.7-16.7
		c-0.6-15.4-1.6-30.8-2.5-46.1c-1.2-18.5-2.8-37.1-3.7-55.6c-1.3-27.4-2.2-54.8-3-82.2c-0.6-18.9-0.7-37.8-0.9-56.8
		c-0.3-26.9-0.3-53.8-0.6-80.6c-0.2-11.8-0.6-23.5-1.4-35.3c-0.3-4.3-2.2-8.5-3.1-12.9c-0.3-1.8,0.4-3.7,0.6-5.6
		c2.5,0.6,6.3,0.5,7.1,2c4.1,7.7,8.8,15.5,10.7,23.8c3.1,13.5,4.7,27.4,5.9,41.2c1.5,18.3,2.2,36.7,2.8,55.1
		c0.6,17.1,0.2,34.2,0.9,51.2c0.8,19.9,3.4,39.8,3,59.7c-0.5,24.2,3.1,47.9,4.8,71.9c1.6,22.8,2.8,45.7,3.7,68.6
		c0.4,11.4,0.3,23-0.8,34.3c-0.5,4.9,0.1,8.3,3.2,11.9c5.4,6.1,4.7,13.7,4.2,20.9c-0.6,8.2-0.5,16.3-4.1,24.3
		c-4.4,9.6-10.2,16.3-21.1,17.6c-12.9,1.5-25.6,4.1-38.5,4.5c-16.8,0.6-33.6-0.7-50.4-0.6c-23.9,0.1-47.8,0.6-71.8,1
		c-26.7,0.4-53.5,0.9-80.2,1.3c-13.6,0.2-27.2,0.8-40.8,0.6c-10-0.1-19.9-1.7-29.9-1.7c-20.6-0.2-41.3,0.1-61.9,0.3
		c-35.4,0.4-70.8,0.9-106.1,1.5c-20.6,0.3-41.2,0.8-61.8,1c-20.7,0.2-41.5,1.1-62.2,0.1c-23.4-1.2-47-0.9-70-6.8
		c-12.8-3.3-25.7-6.1-38.9-9.3c-0.9,1.8-2.1,4-3.5,6.6c-4.2-2.8-4.2-7.3-4.3-11.1c-0.2-9.7,0.2-19.5,0.6-29.2
		c0.3-8.3,1.1-16.6,1.6-24.9c0-0.6-1.2-1.2-1.2-1.8c-0.2-2.6-0.1-5.1,0.8-7.7c-0.4-2.2-1-4.3-1-6.5c-0.3-12.2-0.4-24.4-0.6-36.5
		c-0.3-17.7-1-35.4-0.9-53.1c0-7.7,1.3-15.3,1.9-23c0.2-2.1-0.2-4.1-0.3-6.2c-0.2-9.1-0.6-18.3-0.4-27.4c0.2-9.1,1.3-18.2,1.6-27.4
		c0.3-8.4,0-16.8-0.2-25.2c-0.3-13.3-0.7-26.7-1.1-40c-0.4-12.7-1.3-25.5-1.5-38.2c-0.1-11.2,0.6-22.4,0.7-33.5
		c0.1-11.5-0.8-23-0.1-34.5c0.7-11.1,0.4-22.3,4.4-33.3c3.1-8.5,3-18.2,5-27.2c1.3-5.6,3.7-11,6-16.4c2.5-5.9,8.4-7.2,14.2-4.1
		c3.1,1.7,3,3.9,0.7,5.2c-4,2.3-4.1,5.7-4.4,9.5c-1.2,11.9-2.8,23.7-4.1,35.5c-2.4,22.4-2,44.7,0.7,67.1c1.5,12,0.2,24.2,0.6,36.4
		c0.8,23.6,2.2,47.1,2.8,70.7c0.4,15.9,0,31.9-0.2,47.9c-0.2,22.9-0.6,45.7-0.8,68.6c-0.1,18.3-0.2,36.5,0,54.8
		c0.2,13.1,1.3,26.2,1.2,39.3c-0.1,13.2-0.9,26.4-1.9,39.6c-0.3,4-2,8-3.4,11.9c-0.4,1-2.2,1.4-3.4,2.1c-1.9,1.1-3.7,2.3-5.6,3.4
		C414.4,915.7,414.7,916.2,414.9,916.7z"/>
	<path d="M142.9,1192.3c5.2,0.4,10.4,0.5,15.5,1.2c17.6,2.4,35.2,0.3,52.8-0.4c20.9-0.8,41.9-0.9,62.8-0.7
		c27.6,0.3,55.2,1.6,82.8,1.7c21.1,0.1,42.2-1.5,63.3-1.4c20.1,0.2,40.2,1.8,60.3,2.5c20.3,0.7,40.6,1.2,60.8,1.6
		c16.1,0.4,32.3,0.6,48.4,0.8c28.4,0.3,56.9,0.4,85.3,1c29.9,0.6,59.8,2,89.7,2.6c13.6,0.3,27.2-0.2,40.8-0.4
		c20.9-0.2,41.9-0.2,62.8-0.5c13.4-0.2,26.8-0.7,40.2-0.8c18.1-0.1,36.3,0.1,54.4,0.3c13.1,0.2,26.2,0.5,39.3,1
		c14.6,0.6,29.2,1.6,43.8,2c6.6,0.2,13.2-0.4,19.8-0.6c31.1-0.8,62.3-1.5,93.4-2.3c23.5-0.6,47.1-0.8,70.6-1.8
		c25.2-1.1,50.3-3,75.5-4.7c3.9-0.3,7.8-1.6,11.5-3c12-4.7,22.7,1.7,23.8,14.5c0.7,7.8,0.4,7.1-7.1,10.7c-11.7,5.6-24,5.9-36.4,6.4
		c-24.4,1-48.8,1.7-73.2,2.3c-22.6,0.5-45.1,0.8-67.7,1.1c-23.9,0.4-47.8,1.3-71.6,0.9c-31.7-0.5-63.4-2.2-95.1-2.8
		c-30.6-0.6-61.1-0.4-91.7-0.4c-23.5,0-46.9,0.1-70.4,0.3c-15.8,0.1-31.6,0.8-47.4,0.6c-20.1-0.3-40.2-1.3-60.3-1.8
		c-37.2-1-74.4-1.9-111.6-2.7c-38.8-0.9-77.5-1.4-116.3-2.5c-13.6-0.4-27.2-2.5-40.8-2.9c-18.1-0.5-36.1,0-54.2-0.1
		c-20.2-0.1-40.4-0.2-60.6-0.6c-29.7-0.6-59.4-1.6-89.2-2c-16.6-0.2-33.2,0.4-49.8,0.5c-14.8,0.1-28.4-4.2-41.4-11
		c-4.5-2.4-8.9-4.7-13.4-7.1C142.6,1193.4,142.8,1192.9,142.9,1192.3z"/>
	<path d="M1375.3,1198.3c2-2.2,3.8-4.5,5.9-6.6c7.3-7.3,18.7-9.9,23.6-19.9c2.5-5.2,5.5-11,5.4-16.5c-0.2-12.4-3.9-24.4-12.8-33.2
		c-14.1-14-28.9-27.5-44-40.4c-19.1-16.3-39-31.5-58.1-47.8c-16.7-14.3-32.3-29.7-48.9-44c-14.1-12.1-27.8-24.7-43.9-34.2
		c-2.2-1.3-4.2-3.1-6.6-4.7c4.3-3.9,8.5-3.3,13.4-1.2c8.9,3.7,18.9,5.4,26.9,10.4c14.8,9.3,29,19.8,42.6,30.8
		c20.7,16.6,40.8,34,61.2,51c19.8,16.5,39.9,32.6,59.4,49.4c10.4,9,20.3,18.7,29.2,29.2c7.9,9.2,14,20.3,16.1,32.3
		c2.9,16.5,3.2,33.2-9.3,46.8c-3.5,3.8-7.6,7.9-12.2,9.6c-4.1,1.5-9.4,0.2-14-0.6c-5.2-1-8.9-5.3-13.4-7.4c-4.2-2-9.8-1.1-14.8-1.4
		c-1.6-0.1-3.2,0-4.9,0C1375.9,1199.2,1375.6,1198.8,1375.3,1198.3z"/>
	<path d="M54,1151.8c0.1-13.2,3.1-25.4,10.4-36.8c9.5-15,22.3-26.1,36.9-35.7c16.7-10.9,33.1-22.4,49.8-33.4
		c9.5-6.3,19.1-12.5,28.9-18.3c15.3-9.1,30.6-18.4,46.3-26.7c19.2-10.2,39-19.3,58.3-29.3c15.4-8,31.1-15.8,44.5-27.2
		c1.4-1.2,3.1-2.2,4.8-2.6c2.7-0.6,4.7,1.2,3.5,3.6c-2.9,6.1-6.1,12-9.7,17.7c-5,7.7-13.6,11.1-21.1,15.3
		c-26.6,15-53.7,29.1-80,44.5c-21.1,12.3-41.5,25.6-61.8,39.1c-21.3,14.2-42.3,28.8-62.8,44.1c-9.4,7-17.6,15.6-25.6,24.2
		c-5.2,5.6-6.2,13.1-6,20.9c0.3,8.9,1.6,17,8,23.8c7.2,7.7,15.7,12.3,26.3,13.5c6,0.7,12,2.3,17.5,4.7c5,2.2,6.6,7.7,5,12.3
		c-1.8,5-6.4,5.2-10.4,5.2c-10.2,0.2-19.9-2.8-29.6-5.7c-12.5-3.7-20.5-12-27.5-22.3c-4.9-7.3-4.5-15.8-5.6-24
		C53.8,1156.4,54,1154.1,54,1151.8z"/>
	<path d="M912.1,422.5c1.9-1.2,2.8-2,3.9-2.4c16-5.4,32.4-5.5,49.1-4.7c17.6,0.9,35.2,1.1,52.8,0.8c25.2-0.4,50.4-1.5,75.6-2.2
		c6.8-0.2,13.6-0.4,20.3,0.6c6.6,1,9.2,5.9,6.5,10.4c-0.8,1.4-2.5,2.5-4,3.4c-8.5,4.7-17.6,5-27.1,4.9c-18.7-0.3-37.5-0.8-56.1,0.3
		c-27.1,1.7-53.7-0.9-80.4-4.8c-12.1-1.8-24.2-3.4-36.2-5.1C915.4,423.6,914.4,423.1,912.1,422.5z"/>
	<path d="M977.1,840.1c-0.3,8.3-3.7,12.8-11.9,14c-13.1,1.9-26.3,3.7-39.5,4.1c-13.2,0.4-24.7-4.7-32.4-16.2
		c-4.4-6.6-3.5-12.9,2.5-18.2c4.5-3.9,10.1-6.8,13.8-11.3c8.6-10.4,19.8-8,30.6-7.1c13.1,1.1,25.3,5.5,36,13.2c2.9,2.1,5.5,5,7.3,8
		C987.3,833.1,984.6,838.6,977.1,840.1z M966.5,835.4c-2.8-5.5-5.5-11.1-11.7-13.3c-8.4-3.1-16.9-5.8-25.4-8.4
		c-1.4-0.4-3.4,0.4-4.8,1.2c-2.7,1.7-5.1,4-7.9,5.6c-4.4,2.5-9.2,4.4-10.7,9.7c-1.1,3.6-3.2,7.9,0.2,10.9c2.6,2.2,6.5,4.1,9.8,4
		c10.5-0.3,21.1-1.3,31.6-2.6C954,841.7,960.7,840.3,966.5,835.4z"/>
	<path d="M588.6,841.3c-8.6,6.2-9.7,12.3-3.7,18.8c3.4,3.8,7.2,3.4,11.3,1.9c2.6-1,5.2-2,7.7-3c4.7,8-4.6,15.6-12.5,14.6
		c-10-1.2-17.6-6.5-22.4-15.5c-2.3-4.4-3.1-9.1-0.1-13.2c3.4-4.6,7.1-9.1,11.2-13.1c2.6-2.5,5.6-1.2,8.4,1c2.4,2,5.4,3.3,8.3,4.6
		c7.2,3.2,14.6,6.1,21.8,9.2c1,0.4,2.2,1.4,2.5,2.4c0.7,2.2,1.5,4.7,1.2,6.9c-0.1,0.7-3.7,1.9-5.1,1.4c-5.7-2-11.5-4.1-16.8-7
		C596.3,848,592.8,844.5,588.6,841.3z"/>
	<path d="M852.5,408.3c3.1-0.9,6.1-1.9,9.2-2.8c0.2,0.6,0.3,1.2,0.5,1.8c-3,1.1-6,2.1-9.1,3.2C852.9,409.8,852.7,409,852.5,408.3z"
		/>
	<path d="M710.6,395c3.4,0.7,8.7,7.4,8.7,11.7c0,0.8,0.5,1.9,1.2,2.4c3.1,2.1,3.1,2.1,2.2,5.1c8.5,13.9,11.4,29.3,17.1,43.8
		c-0.5,0.2-0.9,0.4-1.4,0.6c-5.1-8.9-9.9-17.9-15.3-26.5c-13.1-21.3-28.4-40.5-48.7-55.5c-14.9-11-29.2-23-44.3-33.8
		c-14.5-10.4-31.4-16.4-48.1-22.4c-5.8-2.1-11.4-5.1-17.1-7.7c-1-0.5-2-1-3-1.5c0.4-0.6,0.7-1.3,1.1-1.9c5.5,0.2,11,0.6,16.5,0.7
		c12.2,0.3,24.5,1.4,35.5,6.5c11.7,5.4,23.3,11.5,33.7,18.9c13.4,9.5,26,20.1,38.2,31.1c7.6,6.8,13.9,15.1,20.7,22.8
		C708.8,390.4,709.3,392.3,710.6,395z"/>
</g>
</svg>
